<svg xmlns="http://www.w3.org/2000/svg" fill="none" viewBox="0 0 24 24" height="48" width="48">
  <path stroke="#ffffff" stroke-linecap="round" stroke-linejoin="round"
    d="M1.5 19C17.5 23.4 20.6273 13.7253 20.5 8.49998C21.7109 8.16966 22.3333 7.16665 22.5 6.49998C21.7 6.89998 20.8333 6.66665 20.5 6.49998C21.7 6.09998 21.6237 4.90281 21.5 4C20.9966 4.26389 20.0648 4.91626 19 5.00001C18.2881 3.88681 16.5 3.00002 14 4C11.5 4.99999 11 7.66667 11.5 9.00001C8.3 9.00001 4.5 5.66667 3 4C1.20231 6.56512 3.47661 9.10949 4.5 10C3.81775 10.204 3 10 2.5 9.50001C2.5 12.3551 5 13.5 6 14H4C4 16 6.33333 16.8333 7.5 17C6.7 17.8 3.16667 18.6667 1.5 19Z">
  </path>
</svg>